{"title":"Paddington 2 2017 720p HDTS x264 AC3 TiTAN","magnet":"magnet:?xt=urn:btih:496989742ab0822603c2b40001f477176cd93ab9&dn=Paddington+2+2017+720p+HDTS+x264+AC3+TiTAN&tr=udp%3A%2F%2Ftracker.leechers-paradise.org%3A6969&tr=udp%3A%2F%2Fzer0day.ch%3A1337&tr=udp%3A%2F%2Fopen.demonii.com%3A1337&tr=udp%3A%2F%2Ftracker.coppersurfer.tk%3A6969&tr=udp%3A%2F%2Fexodus.desync.com%3A6969","uploader":"makintos13","categoryP":"video","categoryS":"movies","size":"2442691020","seeders":"0","leechers":"0","description":"screens:\r\n <a href=\"\nhttps://imgmak.com/mc0\" rel=\"nofollow\" target=\"_NEW\">\nhttps://imgmak.com/mc0</a>\r\n <a href=\"\nhttps://imgmak.com/mcA\" rel=\"nofollow\" target=\"_NEW\">\nhttps://imgmak.com/mcA</a>\r\n <a href=\"\nhttps://imgmak.com/mcD\" rel=\"nofollow\" target=\"_NEW\">\nhttps://imgmak.com/mcD</a>\r\n <a href=\"\nhttps://imgmak.com/mcf\" rel=\"nofollow\" target=\"_NEW\">\nhttps://imgmak.com/mcf</a>\r\n <a href=\"\nhttps://imgmak.com/mcE\" rel=\"nofollow\" target=\"_NEW\">\nhttps://imgmak.com/mcE</a>\r\n <a href=\"\nhttps://imgmak.com/mch\" rel=\"nofollow\" target=\"_NEW\">\nhttps://imgmak.com/mch</a>\r\n\r\n <a href=\"\nhttp://www.imdb.com/title/tt4468740/\" rel=\"nofollow\" target=\"_NEW\">\nhttp://www.imdb.com/title/tt4468740/</a>\r\n\r\nsource: 1080p a friend :bow:\r\n\r\nGeneral\r\n\r\nFormat                                   : Matroska\r\nFormat version                           : Version 2\r\nFile size                                : 2.27 GiB\r\nDuration                                 : 1h 36mn\r\nOverall bit rate mode                    : Variable\r\nOverall bit rate                         : 3 380 Kbps\r\n\r\nVideo\r\nID                                       : 1\r\nFormat                                   : AVC\r\nFormat/Info                              : Advanced Video Codec\r\nFormat profile                           : <a href=\"/cdn-cgi/l/email-protection\" class=\"__cf_email__\" data-cfemail=\"125a7b757a525e263c23\">[email&#xA0;protected]</a>\r\nFormat settings, CABAC                   : Yes\r\nFormat settings, ReFrames                : 3 frames\r\nCodec ID                                 : V_MPEG4/ISO/AVC\r\nDuration                                 : 1h 36mn\r\nBit rate mode                            : Variable\r\nBit rate                                 : 3 250 Kbps\r\nMaximum bit rate                         : 40.0 Mbps\r\nWidth                                    : 1 280 pixels\r\nHeight                                   : 480 pixels\r\nDisplay aspect ratio                     : 2.667\r\nFrame rate mode                          : Constant\r\nFrame rate                               : 30.000 fps\r\nColor space                              : YUV\r\nChroma subsampling                       : 4:2:0\r\nBit depth                                : 8 bits\r\nScan type                                : Progressive\r\nBits/(Pixel*Frame)                       : 0.176\r\nStream size                              : 2.14 GiB (94%)\r\nDefault                                  : Yes\r\nForced                                   : No\r\nColor primaries                          : BT.709\r\nTransfer characteristics                 : BT.709\r\nMatrix coefficients                      : BT.709\r\n\r\nAudio\r\nID                                       : 2\r\nFormat                                   : MPEG Audio\r\nFormat version                           : Version 1\r\nFormat profile                           : Layer 3\r\nMode                                     : Joint stereo\r\nMode extension                           : MS Stereo\r\nCodec ID                                 : A_MPEG/L3\r\nCodec ID/Hint                            : MP3\r\nDuration                                 : 1h 36mn\r\nBit rate mode                            : Constant\r\nBit rate                                 : 128 Kbps\r\nChannel(s)                               : 2 channels\r\nSampling rate                            : 44.1 KHz\r\nCompression mode                         : Lossy\r\nDelay relative to video                  : 1s 350ms\r\nStream size                              : 88.2 MiB (4%)\r\nDefault                                  : Yes\r\nForced                                   : No","last_updated":"2017-12-28T12:03:17.187Z","parsed":{"xt":"urn:btih:496989742ab0822603c2b40001f477176cd93ab9","dn":"Paddington 2 2017 720p HDTS x264 AC3 TiTAN","tr":["udp://exodus.desync.com:6969","udp://open.demonii.com:1337","udp://tracker.coppersurfer.tk:6969","udp://tracker.leechers-paradise.org:6969","udp://zer0day.ch:1337"],"infoHash":"496989742ab0822603c2b40001f477176cd93ab9","infoHashBuffer":{"type":"Buffer","data":[73,105,137,116,42,176,130,38,3,194,180,0,1,244,119,23,108,217,58,185]},"name":"Paddington 2 2017 720p HDTS x264 AC3 TiTAN","announce":["udp://exodus.desync.com:6969","udp://open.demonii.com:1337","udp://tracker.coppersurfer.tk:6969","udp://tracker.leechers-paradise.org:6969","udp://zer0day.ch:1337"],"urlList":[]}}